<?xml version="1.0" encoding="UTF-8"?>
<svg id="Calque_1" data-name="Calque 1" xmlns="http://www.w3.org/2000/svg" viewBox="0 0 1121 500">
  <defs>
    <style>
      .cls-1 {
        fill: #fff;
      }
    </style>
  </defs>
  <g>
    <path class="cls-1" d="M402.41,188.77c-48.56,0-75.65,23.84-75.65,66.94s27.09,70.3,75.65,70.3,75.65-24.94,75.65-70.3-27.09-66.94-75.65-66.94Zm0,105.5c-25.97,0-37.28-12.48-38.41-38.56,0-24.95,12.44-35.15,38.41-35.15s38.41,11.33,38.41,35.15c0,27.22-12.44,38.56-38.41,38.56Z"/>
    <path class="cls-1" d="M592.27,190.47h-74.53v133.82h74.53c42.91,0,65.51-22.7,65.51-68.06s-20.34-65.76-65.51-65.76Zm0,102.08h-37.24v-69.18h37.24c19.2,0,28.22,9.04,28.22,32.86s-9.02,36.32-28.22,36.32Z"/>
    <path class="cls-1" d="M287.08,191.61h-51.94l-54.2,54.43v-54.43h-37.26v42.86c7.91,4.58,13.24,13.12,13.24,22.91s-5.33,18.33-13.24,22.91v42.86h38.39v-54.43l55.33,54.43h53.07l-70.01-65.77,66.62-65.77Z"/>
    <polygon class="cls-1" points="1031.85 323.16 961.84 257.38 1026.2 191.61 976.52 191.61 922.31 246.04 922.31 191.61 885.05 191.61 885.05 323.16 921.18 323.16 921.18 268.72 976.52 323.16 976.52 323.16 1031.85 323.16"/>
    <path class="cls-1" d="M750.51,190.47l-56.44,133.82h39.48l9.07-22.67h59.86l9.02,22.67h40.65l-56.44-133.82h-45.18Zm3.36,81.66l18.08-46.51,19.2,46.51h-37.29Z"/>
  </g>
  <rect class="cls-1" x="129.91" y="191.49" width="2.76" height="39.79"/>
  <g>
    <line class="cls-1" x1="117.69" y1="235.21" x2="97.8" y2="200.75"/>
    <rect class="cls-1" x="106.36" y="198.08" width="2.76" height="39.79" transform="translate(-94.56 83.08) rotate(-30)"/>
  </g>
  <g>
    <line class="cls-1" x1="108.83" y1="244.21" x2="74.37" y2="224.31"/>
    <rect class="cls-1" x="90.22" y="214.36" width="2.76" height="39.79" transform="translate(-157.07 196.46) rotate(-60)"/>
  </g>
  <rect class="cls-1" x="129.91" y="283.75" width="2.76" height="39.79"/>
  <circle class="cls-1" cx="131.29" cy="257.77" r="13.71"/>
  <g>
    <line class="cls-1" x1="105.06" y1="257.77" x2="65.27" y2="257.77"/>
    <rect class="cls-1" x="65.27" y="256.39" width="39.79" height="2.76"/>
  </g>
  <g>
    <line class="cls-1" x1="108.83" y1="271.33" x2="74.37" y2="291.22"/>
    <rect class="cls-1" x="71.71" y="279.89" width="39.79" height="2.76" transform="translate(-128.38 83.5) rotate(-30)"/>
  </g>
  <g>
    <line class="cls-1" x1="117.69" y1="280.32" x2="97.8" y2="314.78"/>
    <rect class="cls-1" x="87.85" y="296.17" width="39.79" height="2.76" transform="translate(-203.81 242.06) rotate(-60)"/>
  </g>
</svg>